<svg id="my-svg" width="100%" xmlns="http://www.w3.org/2000/svg" xmlns:xlink="http://www.w3.org/1999/xlink" style="max-width: 1670.75px; background-color: transparent;" viewBox="-8 -8 1670.75 111" role="graphics-document document" aria-roledescription="flowchart-v2"><style>#my-svg{font-family:"trebuchet ms",verdana,arial,sans-serif;font-size:16px;fill:#ccc;}#my-svg .error-icon{fill:#a44141;}#my-svg .error-text{fill:#ddd;stroke:#ddd;}#my-svg .edge-thickness-normal{stroke-width:2px;}#my-svg .edge-thickness-thick{stroke-width:3.5px;}#my-svg .edge-pattern-solid{stroke-dasharray:0;}#my-svg .edge-pattern-dashed{stroke-dasharray:3;}#my-svg .edge-pattern-dotted{stroke-dasharray:2;}#my-svg .marker{fill:lightgrey;stroke:lightgrey;}#my-svg .marker.cross{stroke:lightgrey;}#my-svg svg{font-family:"trebuchet ms",verdana,arial,sans-serif;font-size:16px;}#my-svg .label{font-family:"trebuchet ms",verdana,arial,sans-serif;color:#ccc;}#my-svg .cluster-label text{fill:#F9FFFE;}#my-svg .cluster-label span,#my-svg p{color:#F9FFFE;}#my-svg .label text,#my-svg span,#my-svg p{fill:#ccc;color:#ccc;}#my-svg .node rect,#my-svg .node circle,#my-svg .node ellipse,#my-svg .node polygon,#my-svg .node path{fill:#1f2020;stroke:#81B1DB;stroke-width:1px;}#my-svg .flowchart-label text{text-anchor:middle;}#my-svg .node .katex path{fill:#000;stroke:#000;stroke-width:1px;}#my-svg .node .label{text-align:center;}#my-svg .node.clickable{cursor:pointer;}#my-svg .arrowheadPath{fill:lightgrey;}#my-svg .edgePath .path{stroke:lightgrey;stroke-width:2.0px;}#my-svg .flowchart-link{stroke:lightgrey;fill:none;}#my-svg .edgeLabel{background-color:hsl(0, 0%, 34.4117647059%);text-align:center;}#my-svg .edgeLabel rect{opacity:0.5;background-color:hsl(0, 0%, 34.4117647059%);fill:hsl(0, 0%, 34.4117647059%);}#my-svg .labelBkg{background-color:rgba(87.75, 87.75, 87.75, 0.5);}#my-svg .cluster rect{fill:hsl(180, 1.5873015873%, 28.3529411765%);stroke:rgba(255, 255, 255, 0.25);stroke-width:1px;}#my-svg .cluster text{fill:#F9FFFE;}#my-svg .cluster span,#my-svg p{color:#F9FFFE;}#my-svg div.mermaidTooltip{position:absolute;text-align:center;max-width:200px;padding:2px;font-family:"trebuchet ms",verdana,arial,sans-serif;font-size:12px;background:hsl(20, 1.5873015873%, 12.3529411765%);border:1px solid rgba(255, 255, 255, 0.25);border-radius:2px;pointer-events:none;z-index:100;}#my-svg .flowchartTitleText{text-anchor:middle;font-size:18px;fill:#ccc;}#my-svg :root{--mermaid-font-family:"trebuchet ms",verdana,arial,sans-serif;}</style><g><marker id="my-svg_flowchart-pointEnd" class="marker flowchart" viewBox="0 0 10 10" refX="6" refY="5" markerUnits="userSpaceOnUse" markerWidth="12" markerHeight="12" orient="auto"><path d="M 0 0 L 10 5 L 0 10 z" class="arrowMarkerPath" style="stroke-width: 1; stroke-dasharray: 1, 0;"/></marker><marker id="my-svg_flowchart-pointStart" class="marker flowchart" viewBox="0 0 10 10" refX="4.5" refY="5" markerUnits="userSpaceOnUse" markerWidth="12" markerHeight="12" orient="auto"><path d="M 0 5 L 10 10 L 10 0 z" class="arrowMarkerPath" style="stroke-width: 1; stroke-dasharray: 1, 0;"/></marker><marker id="my-svg_flowchart-circleEnd" class="marker flowchart" viewBox="0 0 10 10" refX="11" refY="5" markerUnits="userSpaceOnUse" markerWidth="11" markerHeight="11" orient="auto"><circle cx="5" cy="5" r="5" class="arrowMarkerPath" style="stroke-width: 1; stroke-dasharray: 1, 0;"/></marker><marker id="my-svg_flowchart-circleStart" class="marker flowchart" viewBox="0 0 10 10" refX="-1" refY="5" markerUnits="userSpaceOnUse" markerWidth="11" markerHeight="11" orient="auto"><circle cx="5" cy="5" r="5" class="arrowMarkerPath" style="stroke-width: 1; stroke-dasharray: 1, 0;"/></marker><marker id="my-svg_flowchart-crossEnd" class="marker cross flowchart" viewBox="0 0 11 11" refX="12" refY="5.2" markerUnits="userSpaceOnUse" markerWidth="11" markerHeight="11" orient="auto"><path d="M 1,1 l 9,9 M 10,1 l -9,9" class="arrowMarkerPath" style="stroke-width: 2; stroke-dasharray: 1, 0;"/></marker><marker id="my-svg_flowchart-crossStart" class="marker cross flowchart" viewBox="0 0 11 11" refX="-1" refY="5.2" markerUnits="userSpaceOnUse" markerWidth="11" markerHeight="11" orient="auto"><path d="M 1,1 l 9,9 M 10,1 l -9,9" class="arrowMarkerPath" style="stroke-width: 2; stroke-dasharray: 1, 0;"/></marker><g class="root"><g class="clusters"/><g class="edgePaths"><path d="M127,39.181L131.167,37.651C135.333,36.121,143.667,33.06,151.117,31.53C158.567,30,165.133,30,168.417,30L171.7,30" id="L-PC-Fetch-0" class="edge-thickness-normal edge-pattern-solid flowchart-link LS-PC LE-Fetch" style="fill:none;" marker-end="url(#my-svg_flowchart-pointEnd)"/><path d="M344.391,30L348.557,30C352.724,30,361.057,30,368.507,30C375.957,30,382.524,30,385.807,30L389.091,30" id="L-Fetch-IR-0" class="edge-thickness-normal edge-pattern-solid flowchart-link LS-Fetch LE-IR" style="fill:none;" marker-end="url(#my-svg_flowchart-pointEnd)"/><path d="M507.977,30L512.143,30C516.31,30,524.643,30,532.093,30C539.543,30,546.11,30,549.393,30L552.677,30" id="L-IR-Decode-0" class="edge-thickness-normal edge-pattern-solid flowchart-link LS-IR LE-Decode" style="fill:none;" marker-end="url(#my-svg_flowchart-pointEnd)"/><path d="M716.977,30L721.143,30C725.31,30,733.643,30,741.093,30C748.543,30,755.11,30,758.393,30L761.677,30" id="L-Decode-Read-0" class="edge-thickness-normal edge-pattern-solid flowchart-link LS-Decode LE-Read" style="fill:none;" marker-end="url(#my-svg_flowchart-pointEnd)"/><path d="M926.758,30L930.924,30C935.091,30,943.424,30,950.874,30C958.324,30,964.891,30,968.174,30L971.458,30" id="L-Read-Execute-0" class="edge-thickness-normal edge-pattern-solid flowchart-link LS-Read LE-Execute" style="fill:none;" marker-end="url(#my-svg_flowchart-pointEnd)"/><path d="M1133.703,30L1137.87,30C1142.036,30,1150.37,30,1157.82,30C1165.27,30,1171.836,30,1175.12,30L1178.403,30" id="L-Execute-Memory-0" class="edge-thickness-normal edge-pattern-solid flowchart-link LS-Execute LE-Memory" style="fill:none;" marker-end="url(#my-svg_flowchart-pointEnd)"/><path d="M1291.578,30L1295.745,30C1299.911,30,1308.245,30,1315.695,30C1323.145,30,1329.711,30,1332.995,30L1336.278,30" id="L-Memory-WriteBack-0" class="edge-thickness-normal edge-pattern-solid flowchart-link LS-Memory LE-WriteBack" style="fill:none;" marker-end="url(#my-svg_flowchart-pointEnd)"/><path d="M1476.969,30L1481.135,30C1485.302,30,1493.635,30,1501.139,31.22C1508.643,32.44,1515.317,34.88,1518.654,36.1L1521.991,37.32" id="L-WriteBack-UpdatePC-0" class="edge-thickness-normal edge-pattern-solid flowchart-link LS-WriteBack LE-UpdatePC" style="fill:none;" marker-end="url(#my-svg_flowchart-pointEnd)"/><path d="M1526.969,85.86L1522.802,87.383C1518.635,88.906,1510.302,91.953,1490.686,93.477C1471.07,95,1440.172,95,1409.273,95C1378.375,95,1347.477,95,1318.871,95C1290.266,95,1263.953,95,1237.641,95C1211.328,95,1185.016,95,1154.614,95C1124.212,95,1089.721,95,1055.23,95C1020.74,95,986.249,95,951.521,95C916.794,95,881.831,95,846.867,95C811.904,95,776.94,95,742.042,95C707.143,95,672.31,95,637.477,95C602.643,95,567.81,95,536.761,95C505.712,95,478.448,95,451.184,95C423.919,95,396.655,95,364.907,95C333.159,95,296.927,95,260.695,95C224.464,95,188.232,95,166.778,93.774C145.325,92.549,138.65,90.097,135.313,88.872L131.975,87.646" id="L-UpdatePC-PC-0" class="edge-thickness-normal edge-pattern-solid flowchart-link LS-UpdatePC LE-PC" style="fill:none;" marker-end="url(#my-svg_flowchart-pointEnd)"/></g><g class="edgeLabels"><g class="edgeLabel"><g class="label" transform="translate(0, 0)"><foreignObject width="0" height="0"><div xmlns="http://www.w3.org/1999/xhtml" style="display: inline-block; white-space: nowrap;"><span class="edgeLabel"></span></div></foreignObject></g></g><g class="edgeLabel"><g class="label" transform="translate(0, 0)"><foreignObject width="0" height="0"><div xmlns="http://www.w3.org/1999/xhtml" style="display: inline-block; white-space: nowrap;"><span class="edgeLabel"></span></div></foreignObject></g></g><g class="edgeLabel"><g class="label" transform="translate(0, 0)"><foreignObject width="0" height="0"><div xmlns="http://www.w3.org/1999/xhtml" style="display: inline-block; white-space: nowrap;"><span class="edgeLabel"></span></div></foreignObject></g></g><g class="edgeLabel"><g class="label" transform="translate(0, 0)"><foreignObject width="0" height="0"><div xmlns="http://www.w3.org/1999/xhtml" style="display: inline-block; white-space: nowrap;"><span class="edgeLabel"></span></div></foreignObject></g></g><g class="edgeLabel"><g class="label" transform="translate(0, 0)"><foreignObject width="0" height="0"><div xmlns="http://www.w3.org/1999/xhtml" style="display: inline-block; white-space: nowrap;"><span class="edgeLabel"></span></div></foreignObject></g></g><g class="edgeLabel"><g class="label" transform="translate(0, 0)"><foreignObject width="0" height="0"><div xmlns="http://www.w3.org/1999/xhtml" style="display: inline-block; white-space: nowrap;"><span class="edgeLabel"></span></div></foreignObject></g></g><g class="edgeLabel"><g class="label" transform="translate(0, 0)"><foreignObject width="0" height="0"><div xmlns="http://www.w3.org/1999/xhtml" style="display: inline-block; white-space: nowrap;"><span class="edgeLabel"></span></div></foreignObject></g></g><g class="edgeLabel"><g class="label" transform="translate(0, 0)"><foreignObject width="0" height="0"><div xmlns="http://www.w3.org/1999/xhtml" style="display: inline-block; white-space: nowrap;"><span class="edgeLabel"></span></div></foreignObject></g></g><g class="edgeLabel"><g class="label" transform="translate(0, 0)"><foreignObject width="0" height="0"><div xmlns="http://www.w3.org/1999/xhtml" style="display: inline-block; white-space: nowrap;"><span class="edgeLabel"></span></div></foreignObject></g></g></g><g class="nodes"><g class="node default default flowchart-label" id="flowchart-PC-0" data-node="true" data-id="PC" transform="translate(63.5, 62.5)"><rect class="basic label-container" style="" rx="0" ry="0" x="-63.5" y="-30" width="127" height="60"/><g class="label" style="" transform="translate(-56, -22.5)"><rect/><foreignObject width="112" height="45"><div xmlns="http://www.w3.org/1999/xhtml" style="display: inline-block; white-space: nowrap;"><span class="nodeLabel">PC 程序计数器<br />下一条指令地址</span></div></foreignObject></g></g><g class="node default default flowchart-label" id="flowchart-Fetch-1" data-node="true" data-id="Fetch" transform="translate(260.6953125, 30)"><rect class="basic label-container" style="" rx="0" ry="0" x="-83.6953125" y="-30" width="167.390625" height="60"/><g class="label" style="" transform="translate(-76.1953125, -22.5)"><rect/><foreignObject width="152.390625" height="45"><div xmlns="http://www.w3.org/1999/xhtml" style="display: inline-block; white-space: nowrap;"><span class="nodeLabel">取指 Fetch<br />从内存/缓存读取指令</span></div></foreignObject></g></g><g class="node default default flowchart-label" id="flowchart-IR-3" data-node="true" data-id="IR" transform="translate(451.18359375, 30)"><rect class="basic label-container" style="" rx="0" ry="0" x="-56.79296875" y="-30" width="113.5859375" height="60"/><g class="label" style="" transform="translate(-49.29296875, -22.5)"><rect/><foreignObject width="98.5859375" height="45"><div xmlns="http://www.w3.org/1999/xhtml" style="display: inline-block; white-space: nowrap;"><span class="nodeLabel">IR 指令寄存器<br />保存当前指令</span></div></foreignObject></g></g><g class="node default default flowchart-label" id="flowchart-Decode-5" data-node="true" data-id="Decode" transform="translate(637.4765625, 30)"><rect class="basic label-container" style="" rx="0" ry="0" x="-79.5" y="-30" width="159" height="60"/><g class="label" style="" transform="translate(-72, -22.5)"><rect/><foreignObject width="144" height="45"><div xmlns="http://www.w3.org/1999/xhtml" style="display: inline-block; white-space: nowrap;"><span class="nodeLabel">译码 Decode<br />解释操作码和操作数</span></div></foreignObject></g></g><g class="node default default flowchart-label" id="flowchart-Read-7" data-node="true" data-id="Read" transform="translate(846.8671875, 30)"><rect class="basic label-container" style="" rx="0" ry="0" x="-79.890625" y="-30" width="159.78125" height="60"/><g class="label" style="" transform="translate(-72.390625, -22.5)"><rect/><foreignObject width="144.78125" height="45"><div xmlns="http://www.w3.org/1999/xhtml" style="display: inline-block; white-space: nowrap;"><span class="nodeLabel">读取操作数<br />寄存器/立即数/地址</span></div></foreignObject></g></g><g class="node default default flowchart-label" id="flowchart-Execute-9" data-node="true" data-id="Execute" transform="translate(1055.23046875, 30)"><rect class="basic label-container" style="" rx="0" ry="0" x="-78.47265625" y="-30" width="156.9453125" height="60"/><g class="label" style="" transform="translate(-70.97265625, -22.5)"><rect/><foreignObject width="141.9453125" height="45"><div xmlns="http://www.w3.org/1999/xhtml" style="display: inline-block; white-space: nowrap;"><span class="nodeLabel">执行 Execute<br />ALU / 控制单元协同</span></div></foreignObject></g></g><g class="node default default flowchart-label" id="flowchart-Memory-11" data-node="true" data-id="Memory" transform="translate(1237.640625, 30)"><rect class="basic label-container" style="" rx="0" ry="0" x="-53.9375" y="-28" width="107.875" height="56"/><g class="label" style="" transform="translate(-46.4375, -20.5)"><rect/><foreignObject width="92.875" height="41"><div xmlns="http://www.w3.org/1999/xhtml" style="display: inline-block; white-space: nowrap;"><span class="nodeLabel">访存 Memory<br />Load / Store</span></div></foreignObject></g></g><g class="node default default flowchart-label" id="flowchart-WriteBack-13" data-node="true" data-id="WriteBack" transform="translate(1409.2734375, 30)"><rect class="basic label-container" style="" rx="0" ry="0" x="-67.6953125" y="-30" width="135.390625" height="60"/><g class="label" style="" transform="translate(-60.1953125, -22.5)"><rect/><foreignObject width="120.390625" height="45"><div xmlns="http://www.w3.org/1999/xhtml" style="display: inline-block; white-space: nowrap;"><span class="nodeLabel">写回 Write Back<br />更新寄存器/内存</span></div></foreignObject></g></g><g class="node default default flowchart-label" id="flowchart-UpdatePC-15" data-node="true" data-id="UpdatePC" transform="translate(1590.859375, 62.5)"><rect class="basic label-container" style="" rx="0" ry="0" x="-63.890625" y="-30" width="127.78125" height="60"/><g class="label" style="" transform="translate(-56.390625, -22.5)"><rect/><foreignObject width="112.78125" height="45"><div xmlns="http://www.w3.org/1999/xhtml" style="display: inline-block; white-space: nowrap;"><span class="nodeLabel">更新 PC<br />顺序/跳转/分支</span></div></foreignObject></g></g></g></g></g></svg>