<svg id="my-svg" width="100%" xmlns="http://www.w3.org/2000/svg" xmlns:xlink="http://www.w3.org/1999/xlink" style="max-width: 360.875px; background-color: transparent;" viewBox="-8 -8 360.875 773.375" role="graphics-document document" aria-roledescription="flowchart-v2"><style>#my-svg{font-family:"trebuchet ms",verdana,arial,sans-serif;font-size:16px;fill:#ccc;}#my-svg .error-icon{fill:#a44141;}#my-svg .error-text{fill:#ddd;stroke:#ddd;}#my-svg .edge-thickness-normal{stroke-width:2px;}#my-svg .edge-thickness-thick{stroke-width:3.5px;}#my-svg .edge-pattern-solid{stroke-dasharray:0;}#my-svg .edge-pattern-dashed{stroke-dasharray:3;}#my-svg .edge-pattern-dotted{stroke-dasharray:2;}#my-svg .marker{fill:lightgrey;stroke:lightgrey;}#my-svg .marker.cross{stroke:lightgrey;}#my-svg svg{font-family:"trebuchet ms",verdana,arial,sans-serif;font-size:16px;}#my-svg .label{font-family:"trebuchet ms",verdana,arial,sans-serif;color:#ccc;}#my-svg .cluster-label text{fill:#F9FFFE;}#my-svg .cluster-label span,#my-svg p{color:#F9FFFE;}#my-svg .label text,#my-svg span,#my-svg p{fill:#ccc;color:#ccc;}#my-svg .node rect,#my-svg .node circle,#my-svg .node ellipse,#my-svg .node polygon,#my-svg .node path{fill:#1f2020;stroke:#81B1DB;stroke-width:1px;}#my-svg .flowchart-label text{text-anchor:middle;}#my-svg .node .katex path{fill:#000;stroke:#000;stroke-width:1px;}#my-svg .node .label{text-align:center;}#my-svg .node.clickable{cursor:pointer;}#my-svg .arrowheadPath{fill:lightgrey;}#my-svg .edgePath .path{stroke:lightgrey;stroke-width:2.0px;}#my-svg .flowchart-link{stroke:lightgrey;fill:none;}#my-svg .edgeLabel{background-color:hsl(0, 0%, 34.4117647059%);text-align:center;}#my-svg .edgeLabel rect{opacity:0.5;background-color:hsl(0, 0%, 34.4117647059%);fill:hsl(0, 0%, 34.4117647059%);}#my-svg .labelBkg{background-color:rgba(87.75, 87.75, 87.75, 0.5);}#my-svg .cluster rect{fill:hsl(180, 1.5873015873%, 28.3529411765%);stroke:rgba(255, 255, 255, 0.25);stroke-width:1px;}#my-svg .cluster text{fill:#F9FFFE;}#my-svg .cluster span,#my-svg p{color:#F9FFFE;}#my-svg div.mermaidTooltip{position:absolute;text-align:center;max-width:200px;padding:2px;font-family:"trebuchet ms",verdana,arial,sans-serif;font-size:12px;background:hsl(20, 1.5873015873%, 12.3529411765%);border:1px solid rgba(255, 255, 255, 0.25);border-radius:2px;pointer-events:none;z-index:100;}#my-svg .flowchartTitleText{text-anchor:middle;font-size:18px;fill:#ccc;}#my-svg :root{--mermaid-font-family:"trebuchet ms",verdana,arial,sans-serif;}</style><g><marker id="my-svg_flowchart-pointEnd" class="marker flowchart" viewBox="0 0 10 10" refX="6" refY="5" markerUnits="userSpaceOnUse" markerWidth="12" markerHeight="12" orient="auto"><path d="M 0 0 L 10 5 L 0 10 z" class="arrowMarkerPath" style="stroke-width: 1; stroke-dasharray: 1, 0;"/></marker><marker id="my-svg_flowchart-pointStart" class="marker flowchart" viewBox="0 0 10 10" refX="4.5" refY="5" markerUnits="userSpaceOnUse" markerWidth="12" markerHeight="12" orient="auto"><path d="M 0 5 L 10 10 L 10 0 z" class="arrowMarkerPath" style="stroke-width: 1; stroke-dasharray: 1, 0;"/></marker><marker id="my-svg_flowchart-circleEnd" class="marker flowchart" viewBox="0 0 10 10" refX="11" refY="5" markerUnits="userSpaceOnUse" markerWidth="11" markerHeight="11" orient="auto"><circle cx="5" cy="5" r="5" class="arrowMarkerPath" style="stroke-width: 1; stroke-dasharray: 1, 0;"/></marker><marker id="my-svg_flowchart-circleStart" class="marker flowchart" viewBox="0 0 10 10" refX="-1" refY="5" markerUnits="userSpaceOnUse" markerWidth="11" markerHeight="11" orient="auto"><circle cx="5" cy="5" r="5" class="arrowMarkerPath" style="stroke-width: 1; stroke-dasharray: 1, 0;"/></marker><marker id="my-svg_flowchart-crossEnd" class="marker cross flowchart" viewBox="0 0 11 11" refX="12" refY="5.2" markerUnits="userSpaceOnUse" markerWidth="11" markerHeight="11" orient="auto"><path d="M 1,1 l 9,9 M 10,1 l -9,9" class="arrowMarkerPath" style="stroke-width: 2; stroke-dasharray: 1, 0;"/></marker><marker id="my-svg_flowchart-crossStart" class="marker cross flowchart" viewBox="0 0 11 11" refX="-1" refY="5.2" markerUnits="userSpaceOnUse" markerWidth="11" markerHeight="11" orient="auto"><path d="M 1,1 l 9,9 M 10,1 l -9,9" class="arrowMarkerPath" style="stroke-width: 2; stroke-dasharray: 1, 0;"/></marker><g class="root"><g class="clusters"/><g class="edgePaths"><path d="M212.68,37.5L212.68,41.667C212.68,45.833,212.68,54.167,212.68,61.617C212.68,69.067,212.68,75.633,212.68,78.917L212.68,82.2" id="L-A-B-0" class="edge-thickness-normal edge-pattern-solid flowchart-link LS-A LE-B" style="fill:none;" marker-end="url(#my-svg_flowchart-pointEnd)"/><path d="M192.068,125L187.488,129.167C182.907,133.333,173.747,141.667,169.166,149.117C164.586,156.567,164.586,163.133,164.586,166.417L164.586,169.7" id="L-B-C-0" class="edge-thickness-normal edge-pattern-solid flowchart-link LS-B LE-C" style="fill:none;" marker-end="url(#my-svg_flowchart-pointEnd)"/><path d="M164.586,212.5L164.586,216.667C164.586,220.833,164.586,229.167,164.586,236.617C164.586,244.067,164.586,250.633,164.586,253.917L164.586,257.2" id="L-C-D-0" class="edge-thickness-normal edge-pattern-solid flowchart-link LS-C LE-D" style="fill:none;" marker-end="url(#my-svg_flowchart-pointEnd)"/><path d="M164.586,300L164.586,304.167C164.586,308.333,164.586,316.667,164.586,324.117C164.586,331.567,164.586,338.133,164.586,341.417L164.586,344.7" id="L-D-E-0" class="edge-thickness-normal edge-pattern-solid flowchart-link LS-D LE-E" style="fill:none;" marker-end="url(#my-svg_flowchart-pointEnd)"/><path d="M164.586,387.5L164.586,391.667C164.586,395.833,164.586,404.167,164.652,411.7C164.718,419.234,164.85,425.967,164.916,429.334L164.982,432.701" id="L-E-F-0" class="edge-thickness-normal edge-pattern-solid flowchart-link LS-E LE-F" style="fill:none;" marker-end="url(#my-svg_flowchart-pointEnd)"/><path d="M136.633,531.922L127.176,542.622C117.719,553.323,98.805,574.724,89.348,590.583C79.891,606.442,79.891,616.758,79.891,621.917L79.891,627.075" id="L-F-G-0" class="edge-thickness-normal edge-pattern-solid flowchart-link LS-F LE-G" style="fill:none;" marker-end="url(#my-svg_flowchart-pointEnd)"/><path d="M193.539,531.922L202.83,542.622C212.12,553.323,230.701,574.724,239.991,590.583C249.281,606.442,249.281,616.758,249.281,621.917L249.281,627.075" id="L-F-H-0" class="edge-thickness-normal edge-pattern-solid flowchart-link LS-F LE-H" style="fill:none;" marker-end="url(#my-svg_flowchart-pointEnd)"/><path d="M249.281,669.875L249.281,674.042C249.281,678.208,249.281,686.542,253.208,694.281C257.135,702.02,264.989,709.164,268.916,712.736L272.843,716.309" id="L-H-I-0" class="edge-thickness-normal edge-pattern-solid flowchart-link LS-H LE-I" style="fill:none;" marker-end="url(#my-svg_flowchart-pointEnd)"/><path d="M313.339,719.875L316.887,715.708C320.435,711.542,327.53,703.208,331.077,691.75C334.625,680.292,334.625,665.708,334.625,649.25C334.625,632.792,334.625,614.458,334.625,589.052C334.625,563.646,334.625,531.167,334.625,500.563C334.625,469.958,334.625,441.229,334.625,419.573C334.625,397.917,334.625,383.333,334.625,368.75C334.625,354.167,334.625,339.583,334.625,325C334.625,310.417,334.625,295.833,334.625,281.25C334.625,266.667,334.625,252.083,334.625,237.5C334.625,222.917,334.625,208.333,334.625,193.75C334.625,179.167,334.625,164.583,323.049,153.139C311.473,141.694,288.321,133.387,276.744,129.234L265.168,125.081" id="L-I-B-0" class="edge-thickness-normal edge-pattern-solid flowchart-link LS-I LE-B" style="fill:none;" marker-end="url(#my-svg_flowchart-pointEnd)"/></g><g class="edgeLabels"><g class="edgeLabel"><g class="label" transform="translate(0, 0)"><foreignObject width="0" height="0"><div xmlns="http://www.w3.org/1999/xhtml" style="display: inline-block; white-space: nowrap;"><span class="edgeLabel"></span></div></foreignObject></g></g><g class="edgeLabel"><g class="label" transform="translate(0, 0)"><foreignObject width="0" height="0"><div xmlns="http://www.w3.org/1999/xhtml" style="display: inline-block; white-space: nowrap;"><span class="edgeLabel"></span></div></foreignObject></g></g><g class="edgeLabel"><g class="label" transform="translate(0, 0)"><foreignObject width="0" height="0"><div xmlns="http://www.w3.org/1999/xhtml" style="display: inline-block; white-space: nowrap;"><span class="edgeLabel"></span></div></foreignObject></g></g><g class="edgeLabel"><g class="label" transform="translate(0, 0)"><foreignObject width="0" height="0"><div xmlns="http://www.w3.org/1999/xhtml" style="display: inline-block; white-space: nowrap;"><span class="edgeLabel"></span></div></foreignObject></g></g><g class="edgeLabel"><g class="label" transform="translate(0, 0)"><foreignObject width="0" height="0"><div xmlns="http://www.w3.org/1999/xhtml" style="display: inline-block; white-space: nowrap;"><span class="edgeLabel"></span></div></foreignObject></g></g><g class="edgeLabel" transform="translate(79.890625, 596.125)"><g class="label" transform="translate(-8, -11.25)"><foreignObject width="16" height="22.5"><div xmlns="http://www.w3.org/1999/xhtml" style="display: inline-block; white-space: nowrap;"><span class="edgeLabel">否</span></div></foreignObject></g></g><g class="edgeLabel" transform="translate(249.28125, 596.125)"><g class="label" transform="translate(-8, -11.25)"><foreignObject width="16" height="22.5"><div xmlns="http://www.w3.org/1999/xhtml" style="display: inline-block; white-space: nowrap;"><span class="edgeLabel">是</span></div></foreignObject></g></g><g class="edgeLabel"><g class="label" transform="translate(0, 0)"><foreignObject width="0" height="0"><div xmlns="http://www.w3.org/1999/xhtml" style="display: inline-block; white-space: nowrap;"><span class="edgeLabel"></span></div></foreignObject></g></g><g class="edgeLabel"><g class="label" transform="translate(0, 0)"><foreignObject width="0" height="0"><div xmlns="http://www.w3.org/1999/xhtml" style="display: inline-block; white-space: nowrap;"><span class="edgeLabel"></span></div></foreignObject></g></g></g><g class="nodes"><g class="node default default flowchart-label" id="flowchart-A-0" data-node="true" data-id="A" transform="translate(212.6796875, 18.75)"><rect class="basic label-container" style="" rx="0" ry="0" x="-39.5" y="-18.75" width="79" height="37.5"/><g class="label" style="" transform="translate(-32, -11.25)"><rect/><foreignObject width="64" height="22.5"><div xmlns="http://www.w3.org/1999/xhtml" style="display: inline-block; white-space: nowrap;"><span class="nodeLabel">用户输入</span></div></foreignObject></g></g><g class="node default default flowchart-label" id="flowchart-B-1" data-node="true" data-id="B" transform="translate(212.6796875, 106.25)"><rect class="basic label-container" style="" rx="0" ry="0" x="-47.5" y="-18.75" width="95" height="37.5"/><g class="label" style="" transform="translate(-40, -11.25)"><rect/><foreignObject width="80" height="22.5"><div xmlns="http://www.w3.org/1999/xhtml" style="display: inline-block; white-space: nowrap;"><span class="nodeLabel">提示词模板</span></div></foreignObject></g></g><g class="node default default flowchart-label" id="flowchart-C-3" data-node="true" data-id="C" transform="translate(164.5859375, 193.75)"><rect class="basic label-container" style="" rx="0" ry="0" x="-50.48046875" y="-18.75" width="100.9609375" height="37.5"/><g class="label" style="" transform="translate(-42.98046875, -11.25)"><rect/><foreignObject width="85.9609375" height="22.5"><div xmlns="http://www.w3.org/1999/xhtml" style="display: inline-block; white-space: nowrap;"><span class="nodeLabel">上下文/RAG</span></div></foreignObject></g></g><g class="node default default flowchart-label" id="flowchart-D-5" data-node="true" data-id="D" transform="translate(164.5859375, 281.25)"><rect class="basic label-container" style="" rx="0" ry="0" x="-39.5" y="-18.75" width="79" height="37.5"/><g class="label" style="" transform="translate(-32, -11.25)"><rect/><foreignObject width="64" height="22.5"><div xmlns="http://www.w3.org/1999/xhtml" style="display: inline-block; white-space: nowrap;"><span class="nodeLabel">模型生成</span></div></foreignObject></g></g><g class="node default default flowchart-label" id="flowchart-E-7" data-node="true" data-id="E" transform="translate(164.5859375, 368.75)"><rect class="basic label-container" style="" rx="0" ry="0" x="-47.5" y="-18.75" width="95" height="37.5"/><g class="label" style="" transform="translate(-40, -11.25)"><rect/><foreignObject width="80" height="22.5"><div xmlns="http://www.w3.org/1999/xhtml" style="display: inline-block; white-space: nowrap;"><span class="nodeLabel">结构化校验</span></div></foreignObject></g></g><g class="node default default flowchart-label" id="flowchart-F-9" data-node="true" data-id="F" transform="translate(164.5859375, 498.6875)"><polygon points="61.1875,0 122.375,-61.1875 61.1875,-122.375 0,-61.1875" class="label-container" transform="translate(-61.1875,61.1875)" style=""/><g class="label" style="" transform="translate(-34.9375, -11.25)"><rect/><foreignObject width="69.875" height="22.5"><div xmlns="http://www.w3.org/1999/xhtml" style="display: inline-block; white-space: nowrap;"><span class="nodeLabel">是否通过?</span></div></foreignObject></g></g><g class="node default default flowchart-label" id="flowchart-G-11" data-node="true" data-id="G" transform="translate(79.890625, 651.125)"><rect class="basic label-container" style="" rx="0" ry="0" x="-79.890625" y="-18.75" width="159.78125" height="37.5"/><g class="label" style="" transform="translate(-72.390625, -11.25)"><rect/><foreignObject width="144.78125" height="22.5"><div xmlns="http://www.w3.org/1999/xhtml" style="display: inline-block; white-space: nowrap;"><span class="nodeLabel">重试/降级/人工确认</span></div></foreignObject></g></g><g class="node default default flowchart-label" id="flowchart-H-13" data-node="true" data-id="H" transform="translate(249.28125, 651.125)"><rect class="basic label-container" style="" rx="0" ry="0" x="-39.5" y="-18.75" width="79" height="37.5"/><g class="label" style="" transform="translate(-32, -11.25)"><rect/><foreignObject width="64" height="22.5"><div xmlns="http://www.w3.org/1999/xhtml" style="display: inline-block; white-space: nowrap;"><span class="nodeLabel">业务执行</span></div></foreignObject></g></g><g class="node default default flowchart-label" id="flowchart-I-15" data-node="true" data-id="I" transform="translate(297.375, 738.625)"><rect class="basic label-container" style="" rx="0" ry="0" x="-47.5" y="-18.75" width="95" height="37.5"/><g class="label" style="" transform="translate(-40, -11.25)"><rect/><foreignObject width="80" height="22.5"><div xmlns="http://www.w3.org/1999/xhtml" style="display: inline-block; white-space: nowrap;"><span class="nodeLabel">日志与评估</span></div></foreignObject></g></g></g></g></g></svg>