<svg id="my-svg" width="100%" xmlns="http://www.w3.org/2000/svg" xmlns:xlink="http://www.w3.org/1999/xlink" style="max-width: 602.336px; background-color: transparent;" viewBox="-8 -8 602.3359375 796.875" role="graphics-document document" aria-roledescription="flowchart-v2"><style>#my-svg{font-family:"trebuchet ms",verdana,arial,sans-serif;font-size:16px;fill:#333;}#my-svg .error-icon{fill:#552222;}#my-svg .error-text{fill:#552222;stroke:#552222;}#my-svg .edge-thickness-normal{stroke-width:2px;}#my-svg .edge-thickness-thick{stroke-width:3.5px;}#my-svg .edge-pattern-solid{stroke-dasharray:0;}#my-svg .edge-pattern-dashed{stroke-dasharray:3;}#my-svg .edge-pattern-dotted{stroke-dasharray:2;}#my-svg .marker{fill:#333333;stroke:#333333;}#my-svg .marker.cross{stroke:#333333;}#my-svg svg{font-family:"trebuchet ms",verdana,arial,sans-serif;font-size:16px;}#my-svg .label{font-family:"trebuchet ms",verdana,arial,sans-serif;color:#333;}#my-svg .cluster-label text{fill:#333;}#my-svg .cluster-label span,#my-svg p{color:#333;}#my-svg .label text,#my-svg span,#my-svg p{fill:#333;color:#333;}#my-svg .node rect,#my-svg .node circle,#my-svg .node ellipse,#my-svg .node polygon,#my-svg .node path{fill:#ECECFF;stroke:#9370DB;stroke-width:1px;}#my-svg .flowchart-label text{text-anchor:middle;}#my-svg .node .katex path{fill:#000;stroke:#000;stroke-width:1px;}#my-svg .node .label{text-align:center;}#my-svg .node.clickable{cursor:pointer;}#my-svg .arrowheadPath{fill:#333333;}#my-svg .edgePath .path{stroke:#333333;stroke-width:2.0px;}#my-svg .flowchart-link{stroke:#333333;fill:none;}#my-svg .edgeLabel{background-color:#e8e8e8;text-align:center;}#my-svg .edgeLabel rect{opacity:0.5;background-color:#e8e8e8;fill:#e8e8e8;}#my-svg .labelBkg{background-color:rgba(232, 232, 232, 0.5);}#my-svg .cluster rect{fill:#ffffde;stroke:#aaaa33;stroke-width:1px;}#my-svg .cluster text{fill:#333;}#my-svg .cluster span,#my-svg p{color:#333;}#my-svg div.mermaidTooltip{position:absolute;text-align:center;max-width:200px;padding:2px;font-family:"trebuchet ms",verdana,arial,sans-serif;font-size:12px;background:hsl(80, 100%, 96.2745098039%);border:1px solid #aaaa33;border-radius:2px;pointer-events:none;z-index:100;}#my-svg .flowchartTitleText{text-anchor:middle;font-size:18px;fill:#333;}#my-svg :root{--mermaid-font-family:"trebuchet ms",verdana,arial,sans-serif;}</style><g><marker id="my-svg_flowchart-pointEnd" class="marker flowchart" viewBox="0 0 10 10" refX="6" refY="5" markerUnits="userSpaceOnUse" markerWidth="12" markerHeight="12" orient="auto"><path d="M 0 0 L 10 5 L 0 10 z" class="arrowMarkerPath" style="stroke-width: 1; stroke-dasharray: 1, 0;"/></marker><marker id="my-svg_flowchart-pointStart" class="marker flowchart" viewBox="0 0 10 10" refX="4.5" refY="5" markerUnits="userSpaceOnUse" markerWidth="12" markerHeight="12" orient="auto"><path d="M 0 5 L 10 10 L 10 0 z" class="arrowMarkerPath" style="stroke-width: 1; stroke-dasharray: 1, 0;"/></marker><marker id="my-svg_flowchart-circleEnd" class="marker flowchart" viewBox="0 0 10 10" refX="11" refY="5" markerUnits="userSpaceOnUse" markerWidth="11" markerHeight="11" orient="auto"><circle cx="5" cy="5" r="5" class="arrowMarkerPath" style="stroke-width: 1; stroke-dasharray: 1, 0;"/></marker><marker id="my-svg_flowchart-circleStart" class="marker flowchart" viewBox="0 0 10 10" refX="-1" refY="5" markerUnits="userSpaceOnUse" markerWidth="11" markerHeight="11" orient="auto"><circle cx="5" cy="5" r="5" class="arrowMarkerPath" style="stroke-width: 1; stroke-dasharray: 1, 0;"/></marker><marker id="my-svg_flowchart-crossEnd" class="marker cross flowchart" viewBox="0 0 11 11" refX="12" refY="5.2" markerUnits="userSpaceOnUse" markerWidth="11" markerHeight="11" orient="auto"><path d="M 1,1 l 9,9 M 10,1 l -9,9" class="arrowMarkerPath" style="stroke-width: 2; stroke-dasharray: 1, 0;"/></marker><marker id="my-svg_flowchart-crossStart" class="marker cross flowchart" viewBox="0 0 11 11" refX="-1" refY="5.2" markerUnits="userSpaceOnUse" markerWidth="11" markerHeight="11" orient="auto"><path d="M 1,1 l 9,9 M 10,1 l -9,9" class="arrowMarkerPath" style="stroke-width: 2; stroke-dasharray: 1, 0;"/></marker><g class="root"><g class="clusters"/><g class="edgePaths"><path d="M289.336,37.5L289.336,41.667C289.336,45.833,289.336,54.167,289.402,61.7C289.468,69.234,289.6,75.967,289.666,79.334L289.732,82.701" id="L-A-B-0" class="edge-thickness-normal edge-pattern-solid flowchart-link LS-A LE-B" style="fill:none;" marker-end="url(#my-svg_flowchart-pointEnd)"/><path d="M246.697,161.361L214.192,172.634C181.687,183.907,116.678,206.454,84.173,221.01C51.668,235.567,51.668,242.133,51.668,245.417L51.668,248.7" id="L-B-C-0" class="edge-thickness-normal edge-pattern-solid flowchart-link LS-B LE-C" style="fill:none;" marker-end="url(#my-svg_flowchart-pointEnd)"/><path d="M261.2,175.864L252.473,184.72C243.745,193.576,226.291,211.288,217.563,223.427C208.836,235.567,208.836,242.133,208.836,245.417L208.836,248.7" id="L-B-D-0" class="edge-thickness-normal edge-pattern-solid flowchart-link LS-B LE-D" style="fill:none;" marker-end="url(#my-svg_flowchart-pointEnd)"/><path d="M318.472,175.864L327.033,184.72C335.593,193.576,352.715,211.288,361.275,223.427C369.836,235.567,369.836,242.133,369.836,245.417L369.836,248.7" id="L-B-E-0" class="edge-thickness-normal edge-pattern-solid flowchart-link LS-B LE-E" style="fill:none;" marker-end="url(#my-svg_flowchart-pointEnd)"/><path d="M333.153,161.182L366.101,172.485C399.048,183.788,464.942,206.394,497.889,220.98C530.836,235.567,530.836,242.133,530.836,245.417L530.836,248.7" id="L-B-F-0" class="edge-thickness-normal edge-pattern-solid flowchart-link LS-B LE-F" style="fill:none;" marker-end="url(#my-svg_flowchart-pointEnd)"/><path d="M51.668,291.5L51.668,295.667C51.668,299.833,51.668,308.167,82.494,318.008C113.32,327.849,174.972,339.198,205.798,344.872L236.624,350.547" id="L-C-G-0" class="edge-thickness-normal edge-pattern-solid flowchart-link LS-C LE-G" style="fill:none;" marker-end="url(#my-svg_flowchart-pointEnd)"/><path d="M208.836,291.5L208.836,295.667C208.836,299.833,208.836,308.167,215.726,316.078C222.617,323.99,236.398,331.479,243.289,335.224L250.179,338.969" id="L-D-G-0" class="edge-thickness-normal edge-pattern-solid flowchart-link LS-D LE-G" style="fill:none;" marker-end="url(#my-svg_flowchart-pointEnd)"/><path d="M369.836,291.5L369.836,295.667C369.836,299.833,369.836,308.167,362.945,316.078C356.055,323.99,342.274,331.479,335.383,335.224L328.493,338.969" id="L-E-G-0" class="edge-thickness-normal edge-pattern-solid flowchart-link LS-E LE-G" style="fill:none;" marker-end="url(#my-svg_flowchart-pointEnd)"/><path d="M530.836,291.5L530.836,295.667C530.836,299.833,530.836,308.167,499.372,318.033C467.908,327.9,404.979,339.3,373.515,345L342.051,350.7" id="L-F-G-0" class="edge-thickness-normal edge-pattern-solid flowchart-link LS-F LE-G" style="fill:none;" marker-end="url(#my-svg_flowchart-pointEnd)"/><path d="M289.336,379L289.336,383.167C289.336,387.333,289.336,395.667,289.402,403.2C289.468,410.734,289.6,417.467,289.666,420.834L289.732,424.201" id="L-G-H-0" class="edge-thickness-normal edge-pattern-solid flowchart-link LS-G LE-H" style="fill:none;" marker-end="url(#my-svg_flowchart-pointEnd)"/><path d="M258.748,552.787L251.096,563.926C243.444,575.066,228.14,597.346,220.488,613.644C212.836,629.942,212.836,640.258,212.836,645.417L212.836,650.575" id="L-H-I-0" class="edge-thickness-normal edge-pattern-solid flowchart-link LS-H LE-I" style="fill:none;" marker-end="url(#my-svg_flowchart-pointEnd)"/><path d="M320.924,552.787L328.41,563.926C335.895,575.066,350.865,597.346,358.351,613.644C365.836,629.942,365.836,640.258,365.836,645.417L365.836,650.575" id="L-H-J-0" class="edge-thickness-normal edge-pattern-solid flowchart-link LS-H LE-J" style="fill:none;" marker-end="url(#my-svg_flowchart-pointEnd)"/><path d="M365.836,693.375L365.836,697.542C365.836,701.708,365.836,710.042,365.836,717.492C365.836,724.942,365.836,731.508,365.836,734.792L365.836,738.075" id="L-J-K-0" class="edge-thickness-normal edge-pattern-solid flowchart-link LS-J LE-K" style="fill:none;" marker-end="url(#my-svg_flowchart-pointEnd)"/></g><g class="edgeLabels"><g class="edgeLabel"><g class="label" transform="translate(0, 0)"><foreignObject width="0" height="0"><div xmlns="http://www.w3.org/1999/xhtml" style="display: inline-block; white-space: nowrap;"><span class="edgeLabel"></span></div></foreignObject></g></g><g class="edgeLabel"><g class="label" transform="translate(0, 0)"><foreignObject width="0" height="0"><div xmlns="http://www.w3.org/1999/xhtml" style="display: inline-block; white-space: nowrap;"><span class="edgeLabel"></span></div></foreignObject></g></g><g class="edgeLabel"><g class="label" transform="translate(0, 0)"><foreignObject width="0" height="0"><div xmlns="http://www.w3.org/1999/xhtml" style="display: inline-block; white-space: nowrap;"><span class="edgeLabel"></span></div></foreignObject></g></g><g class="edgeLabel"><g class="label" transform="translate(0, 0)"><foreignObject width="0" height="0"><div xmlns="http://www.w3.org/1999/xhtml" style="display: inline-block; white-space: nowrap;"><span class="edgeLabel"></span></div></foreignObject></g></g><g class="edgeLabel"><g class="label" transform="translate(0, 0)"><foreignObject width="0" height="0"><div xmlns="http://www.w3.org/1999/xhtml" style="display: inline-block; white-space: nowrap;"><span class="edgeLabel"></span></div></foreignObject></g></g><g class="edgeLabel"><g class="label" transform="translate(0, 0)"><foreignObject width="0" height="0"><div xmlns="http://www.w3.org/1999/xhtml" style="display: inline-block; white-space: nowrap;"><span class="edgeLabel"></span></div></foreignObject></g></g><g class="edgeLabel"><g class="label" transform="translate(0, 0)"><foreignObject width="0" height="0"><div xmlns="http://www.w3.org/1999/xhtml" style="display: inline-block; white-space: nowrap;"><span class="edgeLabel"></span></div></foreignObject></g></g><g class="edgeLabel"><g class="label" transform="translate(0, 0)"><foreignObject width="0" height="0"><div xmlns="http://www.w3.org/1999/xhtml" style="display: inline-block; white-space: nowrap;"><span class="edgeLabel"></span></div></foreignObject></g></g><g class="edgeLabel"><g class="label" transform="translate(0, 0)"><foreignObject width="0" height="0"><div xmlns="http://www.w3.org/1999/xhtml" style="display: inline-block; white-space: nowrap;"><span class="edgeLabel"></span></div></foreignObject></g></g><g class="edgeLabel"><g class="label" transform="translate(0, 0)"><foreignObject width="0" height="0"><div xmlns="http://www.w3.org/1999/xhtml" style="display: inline-block; white-space: nowrap;"><span class="edgeLabel"></span></div></foreignObject></g></g><g class="edgeLabel" transform="translate(212.8359375, 619.625)"><g class="label" transform="translate(-8, -11.25)"><foreignObject width="16" height="22.5"><div xmlns="http://www.w3.org/1999/xhtml" style="display: inline-block; white-space: nowrap;"><span class="edgeLabel">否</span></div></foreignObject></g></g><g class="edgeLabel" transform="translate(365.8359375, 619.625)"><g class="label" transform="translate(-8, -11.25)"><foreignObject width="16" height="22.5"><div xmlns="http://www.w3.org/1999/xhtml" style="display: inline-block; white-space: nowrap;"><span class="edgeLabel">是</span></div></foreignObject></g></g><g class="edgeLabel"><g class="label" transform="translate(0, 0)"><foreignObject width="0" height="0"><div xmlns="http://www.w3.org/1999/xhtml" style="display: inline-block; white-space: nowrap;"><span class="edgeLabel"></span></div></foreignObject></g></g></g><g class="nodes"><g class="node default default flowchart-label" id="flowchart-A-0" data-node="true" data-id="A" transform="translate(289.3359375, 18.75)"><rect class="basic label-container" style="" rx="0" ry="0" x="-39.5" y="-18.75" width="79" height="37.5"/><g class="label" style="" transform="translate(-32, -11.25)"><rect/><foreignObject width="64" height="22.5"><div xmlns="http://www.w3.org/1999/xhtml" style="display: inline-block; white-space: nowrap;"><span class="nodeLabel">变更来源</span></div></foreignObject></g></g><g class="node default default flowchart-label" id="flowchart-B-1" data-node="true" data-id="B" transform="translate(289.3359375, 145.75)"><polygon points="58.25,0 116.5,-58.25 58.25,-116.5 0,-58.25" class="label-container" transform="translate(-58.25,58.25)" style=""/><g class="label" style="" transform="translate(-32, -11.25)"><rect/><foreignObject width="64" height="22.5"><div xmlns="http://www.w3.org/1999/xhtml" style="display: inline-block; white-space: nowrap;"><span class="nodeLabel">变更类型</span></div></foreignObject></g></g><g class="node default default flowchart-label" id="flowchart-C-3" data-node="true" data-id="C" transform="translate(51.66796875, 272.75)"><rect class="basic label-container" style="" rx="0" ry="0" x="-51.66796875" y="-18.75" width="103.3359375" height="37.5"/><g class="label" style="" transform="translate(-44.16796875, -11.25)"><rect/><foreignObject width="88.3359375" height="22.5"><div xmlns="http://www.w3.org/1999/xhtml" style="display: inline-block; white-space: nowrap;"><span class="nodeLabel">Prompt 变更</span></div></foreignObject></g></g><g class="node default default flowchart-label" id="flowchart-D-5" data-node="true" data-id="D" transform="translate(208.8359375, 272.75)"><rect class="basic label-container" style="" rx="0" ry="0" x="-55.5" y="-18.75" width="111" height="37.5"/><g class="label" style="" transform="translate(-48, -11.25)"><rect/><foreignObject width="96" height="22.5"><div xmlns="http://www.w3.org/1999/xhtml" style="display: inline-block; white-space: nowrap;"><span class="nodeLabel">模型版本变更</span></div></foreignObject></g></g><g class="node default default flowchart-label" id="flowchart-E-7" data-node="true" data-id="E" transform="translate(369.8359375, 272.75)"><rect class="basic label-container" style="" rx="0" ry="0" x="-55.5" y="-18.75" width="111" height="37.5"/><g class="label" style="" transform="translate(-48, -11.25)"><rect/><foreignObject width="96" height="22.5"><div xmlns="http://www.w3.org/1999/xhtml" style="display: inline-block; white-space: nowrap;"><span class="nodeLabel">检索策略变更</span></div></foreignObject></g></g><g class="node default default flowchart-label" id="flowchart-F-9" data-node="true" data-id="F" transform="translate(530.8359375, 272.75)"><rect class="basic label-container" style="" rx="0" ry="0" x="-55.5" y="-18.75" width="111" height="37.5"/><g class="label" style="" transform="translate(-48, -11.25)"><rect/><foreignObject width="96" height="22.5"><div xmlns="http://www.w3.org/1999/xhtml" style="display: inline-block; white-space: nowrap;"><span class="nodeLabel">工具逻辑变更</span></div></foreignObject></g></g><g class="node default default flowchart-label" id="flowchart-G-11" data-node="true" data-id="G" transform="translate(289.3359375, 360.25)"><rect class="basic label-container" style="" rx="0" ry="0" x="-47.5" y="-18.75" width="95" height="37.5"/><g class="label" style="" transform="translate(-40, -11.25)"><rect/><foreignObject width="80" height="22.5"><div xmlns="http://www.w3.org/1999/xhtml" style="display: inline-block; white-space: nowrap;"><span class="nodeLabel">评测集回归</span></div></foreignObject></g></g><g class="node default default flowchart-label" id="flowchart-H-19" data-node="true" data-id="H" transform="translate(289.3359375, 506.1875)"><polygon points="77.1875,0 154.375,-77.1875 77.1875,-154.375 0,-77.1875" class="label-container" transform="translate(-77.1875,77.1875)" style=""/><g class="label" style="" transform="translate(-50.9375, -11.25)"><rect/><foreignObject width="101.875" height="22.5"><div xmlns="http://www.w3.org/1999/xhtml" style="display: inline-block; white-space: nowrap;"><span class="nodeLabel">质量门禁通过?</span></div></foreignObject></g></g><g class="node default default flowchart-label" id="flowchart-I-21" data-node="true" data-id="I" transform="translate(212.8359375, 674.625)"><rect class="basic label-container" style="" rx="0" ry="0" x="-63.5" y="-18.75" width="127" height="37.5"/><g class="label" style="" transform="translate(-56, -11.25)"><rect/><foreignObject width="112" height="22.5"><div xmlns="http://www.w3.org/1999/xhtml" style="display: inline-block; white-space: nowrap;"><span class="nodeLabel">阻断发布并修正</span></div></foreignObject></g></g><g class="node default default flowchart-label" id="flowchart-J-23" data-node="true" data-id="J" transform="translate(365.8359375, 674.625)"><rect class="basic label-container" style="" rx="0" ry="0" x="-39.5" y="-18.75" width="79" height="37.5"/><g class="label" style="" transform="translate(-32, -11.25)"><rect/><foreignObject width="64" height="22.5"><div xmlns="http://www.w3.org/1999/xhtml" style="display: inline-block; white-space: nowrap;"><span class="nodeLabel">灰度发布</span></div></foreignObject></g></g><g class="node default default flowchart-label" id="flowchart-K-25" data-node="true" data-id="K" transform="translate(365.8359375, 762.125)"><rect class="basic label-container" style="" rx="0" ry="0" x="-47.5" y="-18.75" width="95" height="37.5"/><g class="label" style="" transform="translate(-40, -11.25)"><rect/><foreignObject width="80" height="22.5"><div xmlns="http://www.w3.org/1999/xhtml" style="display: inline-block; white-space: nowrap;"><span class="nodeLabel">监控与回滚</span></div></foreignObject></g></g></g></g></g></svg>