<svg id="my-svg" width="100%" xmlns="http://www.w3.org/2000/svg" xmlns:xlink="http://www.w3.org/1999/xlink" style="max-width: 1124px; background-color: transparent;" viewBox="-8 -8 1124 516.375" role="graphics-document document" aria-roledescription="flowchart-v2"><style>#my-svg{font-family:"trebuchet ms",verdana,arial,sans-serif;font-size:16px;fill:#ccc;}#my-svg .error-icon{fill:#a44141;}#my-svg .error-text{fill:#ddd;stroke:#ddd;}#my-svg .edge-thickness-normal{stroke-width:2px;}#my-svg .edge-thickness-thick{stroke-width:3.5px;}#my-svg .edge-pattern-solid{stroke-dasharray:0;}#my-svg .edge-pattern-dashed{stroke-dasharray:3;}#my-svg .edge-pattern-dotted{stroke-dasharray:2;}#my-svg .marker{fill:lightgrey;stroke:lightgrey;}#my-svg .marker.cross{stroke:lightgrey;}#my-svg svg{font-family:"trebuchet ms",verdana,arial,sans-serif;font-size:16px;}#my-svg .label{font-family:"trebuchet ms",verdana,arial,sans-serif;color:#ccc;}#my-svg .cluster-label text{fill:#F9FFFE;}#my-svg .cluster-label span,#my-svg p{color:#F9FFFE;}#my-svg .label text,#my-svg span,#my-svg p{fill:#ccc;color:#ccc;}#my-svg .node rect,#my-svg .node circle,#my-svg .node ellipse,#my-svg .node polygon,#my-svg .node path{fill:#1f2020;stroke:#81B1DB;stroke-width:1px;}#my-svg .flowchart-label text{text-anchor:middle;}#my-svg .node .katex path{fill:#000;stroke:#000;stroke-width:1px;}#my-svg .node .label{text-align:center;}#my-svg .node.clickable{cursor:pointer;}#my-svg .arrowheadPath{fill:lightgrey;}#my-svg .edgePath .path{stroke:lightgrey;stroke-width:2.0px;}#my-svg .flowchart-link{stroke:lightgrey;fill:none;}#my-svg .edgeLabel{background-color:hsl(0, 0%, 34.4117647059%);text-align:center;}#my-svg .edgeLabel rect{opacity:0.5;background-color:hsl(0, 0%, 34.4117647059%);fill:hsl(0, 0%, 34.4117647059%);}#my-svg .labelBkg{background-color:rgba(87.75, 87.75, 87.75, 0.5);}#my-svg .cluster rect{fill:hsl(180, 1.5873015873%, 28.3529411765%);stroke:rgba(255, 255, 255, 0.25);stroke-width:1px;}#my-svg .cluster text{fill:#F9FFFE;}#my-svg .cluster span,#my-svg p{color:#F9FFFE;}#my-svg div.mermaidTooltip{position:absolute;text-align:center;max-width:200px;padding:2px;font-family:"trebuchet ms",verdana,arial,sans-serif;font-size:12px;background:hsl(20, 1.5873015873%, 12.3529411765%);border:1px solid rgba(255, 255, 255, 0.25);border-radius:2px;pointer-events:none;z-index:100;}#my-svg .flowchartTitleText{text-anchor:middle;font-size:18px;fill:#ccc;}#my-svg :root{--mermaid-font-family:"trebuchet ms",verdana,arial,sans-serif;}</style><g><marker id="my-svg_flowchart-pointEnd" class="marker flowchart" viewBox="0 0 10 10" refX="6" refY="5" markerUnits="userSpaceOnUse" markerWidth="12" markerHeight="12" orient="auto"><path d="M 0 0 L 10 5 L 0 10 z" class="arrowMarkerPath" style="stroke-width: 1; stroke-dasharray: 1, 0;"/></marker><marker id="my-svg_flowchart-pointStart" class="marker flowchart" viewBox="0 0 10 10" refX="4.5" refY="5" markerUnits="userSpaceOnUse" markerWidth="12" markerHeight="12" orient="auto"><path d="M 0 5 L 10 10 L 10 0 z" class="arrowMarkerPath" style="stroke-width: 1; stroke-dasharray: 1, 0;"/></marker><marker id="my-svg_flowchart-circleEnd" class="marker flowchart" viewBox="0 0 10 10" refX="11" refY="5" markerUnits="userSpaceOnUse" markerWidth="11" markerHeight="11" orient="auto"><circle cx="5" cy="5" r="5" class="arrowMarkerPath" style="stroke-width: 1; stroke-dasharray: 1, 0;"/></marker><marker id="my-svg_flowchart-circleStart" class="marker flowchart" viewBox="0 0 10 10" refX="-1" refY="5" markerUnits="userSpaceOnUse" markerWidth="11" markerHeight="11" orient="auto"><circle cx="5" cy="5" r="5" class="arrowMarkerPath" style="stroke-width: 1; stroke-dasharray: 1, 0;"/></marker><marker id="my-svg_flowchart-crossEnd" class="marker cross flowchart" viewBox="0 0 11 11" refX="12" refY="5.2" markerUnits="userSpaceOnUse" markerWidth="11" markerHeight="11" orient="auto"><path d="M 1,1 l 9,9 M 10,1 l -9,9" class="arrowMarkerPath" style="stroke-width: 2; stroke-dasharray: 1, 0;"/></marker><marker id="my-svg_flowchart-crossStart" class="marker cross flowchart" viewBox="0 0 11 11" refX="-1" refY="5.2" markerUnits="userSpaceOnUse" markerWidth="11" markerHeight="11" orient="auto"><path d="M 1,1 l 9,9 M 10,1 l -9,9" class="arrowMarkerPath" style="stroke-width: 2; stroke-dasharray: 1, 0;"/></marker><g class="root"><g class="clusters"/><g class="edgePaths"><path d="M546,60L546,64.167C546,68.333,546,76.667,546.066,84.2C546.132,91.734,546.264,98.467,546.33,101.834L546.396,105.201" id="L-Client-Unknown-0" class="edge-thickness-normal edge-pattern-solid flowchart-link LS-Client LE-Unknown" style="fill:none;" marker-end="url(#my-svg_flowchart-pointEnd)"/><path d="M476.734,211.109L405.195,226.82C333.656,242.531,190.578,273.953,119.039,292.947C47.5,311.942,47.5,318.508,47.5,321.792L47.5,325.075" id="L-Unknown-NotArrived-0" class="edge-thickness-normal edge-pattern-solid flowchart-link LS-Unknown LE-NotArrived" style="fill:none;" marker-end="url(#my-svg_flowchart-pointEnd)"/><path d="M483.056,217.431L439.964,232.089C396.871,246.746,310.685,276.06,267.593,294.001C224.5,311.942,224.5,318.508,224.5,321.792L224.5,325.075" id="L-Unknown-Failed-0" class="edge-thickness-normal edge-pattern-solid flowchart-link LS-Unknown LE-Failed" style="fill:none;" marker-end="url(#my-svg_flowchart-pointEnd)"/><path d="M503.464,237.839L491.803,249.095C480.143,260.351,456.821,282.863,445.161,297.402C433.5,311.942,433.5,318.508,433.5,321.792L433.5,325.075" id="L-Unknown-CommittedNoResp-0" class="edge-thickness-normal edge-pattern-solid flowchart-link LS-Unknown LE-CommittedNoResp" style="fill:none;" marker-end="url(#my-svg_flowchart-pointEnd)"/><path d="M589.536,237.839L601.03,249.095C612.524,260.351,635.512,282.863,647.006,297.402C658.5,311.942,658.5,318.508,658.5,321.792L658.5,325.075" id="L-Unknown-LateCommit-0" class="edge-thickness-normal edge-pattern-solid flowchart-link LS-Unknown LE-LateCommit" style="fill:none;" marker-end="url(#my-svg_flowchart-pointEnd)"/><path d="M610.339,217.036L654.533,231.759C698.726,246.482,787.113,275.929,831.307,293.935C875.5,311.942,875.5,318.508,875.5,321.792L875.5,325.075" id="L-Unknown-Duplicate-0" class="edge-thickness-normal edge-pattern-solid flowchart-link LS-Unknown LE-Duplicate" style="fill:none;" marker-end="url(#my-svg_flowchart-pointEnd)"/><path d="M616.467,210.908L689.139,226.653C761.811,242.397,907.156,273.886,979.828,292.914C1052.5,311.942,1052.5,318.508,1052.5,321.792L1052.5,325.075" id="L-Unknown-Reordered-0" class="edge-thickness-normal edge-pattern-solid flowchart-link LS-Unknown LE-Reordered" style="fill:none;" marker-end="url(#my-svg_flowchart-pointEnd)"/><path d="M47.5,390.375L47.5,394.542C47.5,398.708,47.5,407.042,112.714,418.403C177.928,429.765,308.355,444.155,373.569,451.351L438.783,458.546" id="L-NotArrived-Design-0" class="edge-thickness-normal edge-pattern-solid flowchart-link LS-NotArrived LE-Design" style="fill:none;" marker-end="url(#my-svg_flowchart-pointEnd)"/><path d="M224.5,390.375L224.5,394.542C224.5,398.708,224.5,407.042,260.221,417.319C295.942,427.597,367.384,439.819,403.106,445.93L438.827,452.041" id="L-Failed-Design-0" class="edge-thickness-normal edge-pattern-solid flowchart-link LS-Failed LE-Design" style="fill:none;" marker-end="url(#my-svg_flowchart-pointEnd)"/><path d="M433.5,390.375L433.5,394.542C433.5,398.708,433.5,407.042,441.229,414.987C448.958,422.932,464.417,430.49,472.146,434.268L479.875,438.047" id="L-CommittedNoResp-Design-0" class="edge-thickness-normal edge-pattern-solid flowchart-link LS-CommittedNoResp LE-Design" style="fill:none;" marker-end="url(#my-svg_flowchart-pointEnd)"/><path d="M658.5,390.375L658.5,394.542C658.5,398.708,658.5,407.042,650.771,414.987C643.042,422.932,627.583,430.49,619.854,434.268L612.125,438.047" id="L-LateCommit-Design-0" class="edge-thickness-normal edge-pattern-solid flowchart-link LS-LateCommit LE-Design" style="fill:none;" marker-end="url(#my-svg_flowchart-pointEnd)"/><path d="M875.5,390.375L875.5,394.542C875.5,398.708,875.5,407.042,838.446,417.393C801.392,427.745,727.285,440.115,690.231,446.3L653.177,452.485" id="L-Duplicate-Design-0" class="edge-thickness-normal edge-pattern-solid flowchart-link LS-Duplicate LE-Design" style="fill:none;" marker-end="url(#my-svg_flowchart-pointEnd)"/><path d="M1052.5,390.375L1052.5,394.542C1052.5,398.708,1052.5,407.042,985.953,418.435C919.406,429.827,786.312,444.28,719.765,451.506L653.218,458.732" id="L-Reordered-Design-0" class="edge-thickness-normal edge-pattern-solid flowchart-link LS-Reordered LE-Design" style="fill:none;" marker-end="url(#my-svg_flowchart-pointEnd)"/></g><g class="edgeLabels"><g class="edgeLabel"><g class="label" transform="translate(0, 0)"><foreignObject width="0" height="0"><div xmlns="http://www.w3.org/1999/xhtml" style="display: inline-block; white-space: nowrap;"><span class="edgeLabel"></span></div></foreignObject></g></g><g class="edgeLabel"><g class="label" transform="translate(0, 0)"><foreignObject width="0" height="0"><div xmlns="http://www.w3.org/1999/xhtml" style="display: inline-block; white-space: nowrap;"><span class="edgeLabel"></span></div></foreignObject></g></g><g class="edgeLabel"><g class="label" transform="translate(0, 0)"><foreignObject width="0" height="0"><div xmlns="http://www.w3.org/1999/xhtml" style="display: inline-block; white-space: nowrap;"><span class="edgeLabel"></span></div></foreignObject></g></g><g class="edgeLabel"><g class="label" transform="translate(0, 0)"><foreignObject width="0" height="0"><div xmlns="http://www.w3.org/1999/xhtml" style="display: inline-block; white-space: nowrap;"><span class="edgeLabel"></span></div></foreignObject></g></g><g class="edgeLabel"><g class="label" transform="translate(0, 0)"><foreignObject width="0" height="0"><div xmlns="http://www.w3.org/1999/xhtml" style="display: inline-block; white-space: nowrap;"><span class="edgeLabel"></span></div></foreignObject></g></g><g class="edgeLabel"><g class="label" transform="translate(0, 0)"><foreignObject width="0" height="0"><div xmlns="http://www.w3.org/1999/xhtml" style="display: inline-block; white-space: nowrap;"><span class="edgeLabel"></span></div></foreignObject></g></g><g class="edgeLabel"><g class="label" transform="translate(0, 0)"><foreignObject width="0" height="0"><div xmlns="http://www.w3.org/1999/xhtml" style="display: inline-block; white-space: nowrap;"><span class="edgeLabel"></span></div></foreignObject></g></g><g class="edgeLabel"><g class="label" transform="translate(0, 0)"><foreignObject width="0" height="0"><div xmlns="http://www.w3.org/1999/xhtml" style="display: inline-block; white-space: nowrap;"><span class="edgeLabel"></span></div></foreignObject></g></g><g class="edgeLabel"><g class="label" transform="translate(0, 0)"><foreignObject width="0" height="0"><div xmlns="http://www.w3.org/1999/xhtml" style="display: inline-block; white-space: nowrap;"><span class="edgeLabel"></span></div></foreignObject></g></g><g class="edgeLabel"><g class="label" transform="translate(0, 0)"><foreignObject width="0" height="0"><div xmlns="http://www.w3.org/1999/xhtml" style="display: inline-block; white-space: nowrap;"><span class="edgeLabel"></span></div></foreignObject></g></g><g class="edgeLabel"><g class="label" transform="translate(0, 0)"><foreignObject width="0" height="0"><div xmlns="http://www.w3.org/1999/xhtml" style="display: inline-block; white-space: nowrap;"><span class="edgeLabel"></span></div></foreignObject></g></g><g class="edgeLabel"><g class="label" transform="translate(0, 0)"><foreignObject width="0" height="0"><div xmlns="http://www.w3.org/1999/xhtml" style="display: inline-block; white-space: nowrap;"><span class="edgeLabel"></span></div></foreignObject></g></g><g class="edgeLabel"><g class="label" transform="translate(0, 0)"><foreignObject width="0" height="0"><div xmlns="http://www.w3.org/1999/xhtml" style="display: inline-block; white-space: nowrap;"><span class="edgeLabel"></span></div></foreignObject></g></g></g><g class="nodes"><g class="node default default flowchart-label" id="flowchart-Client-0" data-node="true" data-id="Client" transform="translate(546, 30)"><rect class="basic label-container" style="" rx="0" ry="0" x="-64.515625" y="-30" width="129.03125" height="60"/><g class="label" style="" transform="translate(-57.015625, -22.5)"><rect/><foreignObject width="114.03125" height="45"><div xmlns="http://www.w3.org/1999/xhtml" style="display: inline-block; white-space: nowrap;"><span class="nodeLabel">客户端视角<br />超时 / 调用失败</span></div></foreignObject></g></g><g class="node default default flowchart-label" id="flowchart-Unknown-1" data-node="true" data-id="Unknown" transform="translate(546, 195.1875)"><polygon points="85.1875,0 170.375,-85.1875 85.1875,-170.375 0,-85.1875" class="label-container" transform="translate(-85.1875,85.1875)" style=""/><g class="label" style="" transform="translate(-58.9375, -11.25)"><rect/><foreignObject width="117.875" height="22.5"><div xmlns="http://www.w3.org/1999/xhtml" style="display: inline-block; white-space: nowrap;"><span class="nodeLabel">服务端真实状态?</span></div></foreignObject></g></g><g class="node default default flowchart-label" id="flowchart-NotArrived-3" data-node="true" data-id="NotArrived" transform="translate(47.5, 360.375)"><rect class="basic label-container" style="" rx="0" ry="0" x="-47.5" y="-30" width="95" height="60"/><g class="label" style="" transform="translate(-40, -22.5)"><rect/><foreignObject width="80" height="45"><div xmlns="http://www.w3.org/1999/xhtml" style="display: inline-block; white-space: nowrap;"><span class="nodeLabel">请求未到达<br />无副作用</span></div></foreignObject></g></g><g class="node default default flowchart-label" id="flowchart-Failed-5" data-node="true" data-id="Failed" transform="translate(224.5, 360.375)"><rect class="basic label-container" style="" rx="0" ry="0" x="-79.5" y="-30" width="159" height="60"/><g class="label" style="" transform="translate(-72, -22.5)"><rect/><foreignObject width="144" height="45"><div xmlns="http://www.w3.org/1999/xhtml" style="display: inline-block; white-space: nowrap;"><span class="nodeLabel">请求到达但处理失败<br />可能无副作用</span></div></foreignObject></g></g><g class="node default default flowchart-label" id="flowchart-CommittedNoResp-7" data-node="true" data-id="CommittedNoResp" transform="translate(433.5, 360.375)"><rect class="basic label-container" style="" rx="0" ry="0" x="-79.5" y="-30" width="159" height="60"/><g class="label" style="" transform="translate(-72, -22.5)"><rect/><foreignObject width="144" height="45"><div xmlns="http://www.w3.org/1999/xhtml" style="display: inline-block; white-space: nowrap;"><span class="nodeLabel">处理成功但响应丢失<br />已有副作用</span></div></foreignObject></g></g><g class="node default default flowchart-label" id="flowchart-LateCommit-9" data-node="true" data-id="LateCommit" transform="translate(658.5, 360.375)"><rect class="basic label-container" style="" rx="0" ry="0" x="-95.5" y="-30" width="191" height="60"/><g class="label" style="" transform="translate(-88, -22.5)"><rect/><foreignObject width="176" height="45"><div xmlns="http://www.w3.org/1999/xhtml" style="display: inline-block; white-space: nowrap;"><span class="nodeLabel">客户端超时后服务端提交<br />状态未知</span></div></foreignObject></g></g><g class="node default default flowchart-label" id="flowchart-Duplicate-11" data-node="true" data-id="Duplicate" transform="translate(875.5, 360.375)"><rect class="basic label-container" style="" rx="0" ry="0" x="-71.5" y="-30" width="143" height="60"/><g class="label" style="" transform="translate(-64, -22.5)"><rect/><foreignObject width="128" height="45"><div xmlns="http://www.w3.org/1999/xhtml" style="display: inline-block; white-space: nowrap;"><span class="nodeLabel">重试导致重复请求<br />需要幂等</span></div></foreignObject></g></g><g class="node default default flowchart-label" id="flowchart-Reordered-13" data-node="true" data-id="Reordered" transform="translate(1052.5, 360.375)"><rect class="basic label-container" style="" rx="0" ry="0" x="-55.5" y="-30" width="111" height="60"/><g class="label" style="" transform="translate(-48, -22.5)"><rect/><foreignObject width="96" height="45"><div xmlns="http://www.w3.org/1999/xhtml" style="display: inline-block; white-space: nowrap;"><span class="nodeLabel">消息乱序到达<br />需要状态校验</span></div></foreignObject></g></g><g class="node default default flowchart-label" id="flowchart-Design-15" data-node="true" data-id="Design" transform="translate(546, 470.375)"><rect class="basic label-container" style="" rx="0" ry="0" x="-101.94921875" y="-30" width="203.8984375" height="60"/><g class="label" style="" transform="translate(-94.44921875, -22.5)"><rect/><foreignObject width="188.8984375" height="45"><div xmlns="http://www.w3.org/1999/xhtml" style="display: inline-block; white-space: nowrap;"><span class="nodeLabel">设计要求<br />重试 + 幂等 + Trace + 补偿</span></div></foreignObject></g></g></g></g></g></svg>