<svg id="my-svg" width="100%" xmlns="http://www.w3.org/2000/svg" xmlns:xlink="http://www.w3.org/1999/xlink" style="max-width: 433px; background-color: transparent;" viewBox="-8 -8 433 657.5" role="graphics-document document" aria-roledescription="flowchart-v2"><style>#my-svg{font-family:"trebuchet ms",verdana,arial,sans-serif;font-size:16px;fill:#333;}#my-svg .error-icon{fill:#552222;}#my-svg .error-text{fill:#552222;stroke:#552222;}#my-svg .edge-thickness-normal{stroke-width:2px;}#my-svg .edge-thickness-thick{stroke-width:3.5px;}#my-svg .edge-pattern-solid{stroke-dasharray:0;}#my-svg .edge-pattern-dashed{stroke-dasharray:3;}#my-svg .edge-pattern-dotted{stroke-dasharray:2;}#my-svg .marker{fill:#333333;stroke:#333333;}#my-svg .marker.cross{stroke:#333333;}#my-svg svg{font-family:"trebuchet ms",verdana,arial,sans-serif;font-size:16px;}#my-svg .label{font-family:"trebuchet ms",verdana,arial,sans-serif;color:#333;}#my-svg .cluster-label text{fill:#333;}#my-svg .cluster-label span,#my-svg p{color:#333;}#my-svg .label text,#my-svg span,#my-svg p{fill:#333;color:#333;}#my-svg .node rect,#my-svg .node circle,#my-svg .node ellipse,#my-svg .node polygon,#my-svg .node path{fill:#ECECFF;stroke:#9370DB;stroke-width:1px;}#my-svg .flowchart-label text{text-anchor:middle;}#my-svg .node .katex path{fill:#000;stroke:#000;stroke-width:1px;}#my-svg .node .label{text-align:center;}#my-svg .node.clickable{cursor:pointer;}#my-svg .arrowheadPath{fill:#333333;}#my-svg .edgePath .path{stroke:#333333;stroke-width:2.0px;}#my-svg .flowchart-link{stroke:#333333;fill:none;}#my-svg .edgeLabel{background-color:#e8e8e8;text-align:center;}#my-svg .edgeLabel rect{opacity:0.5;background-color:#e8e8e8;fill:#e8e8e8;}#my-svg .labelBkg{background-color:rgba(232, 232, 232, 0.5);}#my-svg .cluster rect{fill:#ffffde;stroke:#aaaa33;stroke-width:1px;}#my-svg .cluster text{fill:#333;}#my-svg .cluster span,#my-svg p{color:#333;}#my-svg div.mermaidTooltip{position:absolute;text-align:center;max-width:200px;padding:2px;font-family:"trebuchet ms",verdana,arial,sans-serif;font-size:12px;background:hsl(80, 100%, 96.2745098039%);border:1px solid #aaaa33;border-radius:2px;pointer-events:none;z-index:100;}#my-svg .flowchartTitleText{text-anchor:middle;font-size:18px;fill:#333;}#my-svg :root{--mermaid-font-family:"trebuchet ms",verdana,arial,sans-serif;}</style><g><marker id="my-svg_flowchart-pointEnd" class="marker flowchart" viewBox="0 0 10 10" refX="6" refY="5" markerUnits="userSpaceOnUse" markerWidth="12" markerHeight="12" orient="auto"><path d="M 0 0 L 10 5 L 0 10 z" class="arrowMarkerPath" style="stroke-width: 1; stroke-dasharray: 1, 0;"/></marker><marker id="my-svg_flowchart-pointStart" class="marker flowchart" viewBox="0 0 10 10" refX="4.5" refY="5" markerUnits="userSpaceOnUse" markerWidth="12" markerHeight="12" orient="auto"><path d="M 0 5 L 10 10 L 10 0 z" class="arrowMarkerPath" style="stroke-width: 1; stroke-dasharray: 1, 0;"/></marker><marker id="my-svg_flowchart-circleEnd" class="marker flowchart" viewBox="0 0 10 10" refX="11" refY="5" markerUnits="userSpaceOnUse" markerWidth="11" markerHeight="11" orient="auto"><circle cx="5" cy="5" r="5" class="arrowMarkerPath" style="stroke-width: 1; stroke-dasharray: 1, 0;"/></marker><marker id="my-svg_flowchart-circleStart" class="marker flowchart" viewBox="0 0 10 10" refX="-1" refY="5" markerUnits="userSpaceOnUse" markerWidth="11" markerHeight="11" orient="auto"><circle cx="5" cy="5" r="5" class="arrowMarkerPath" style="stroke-width: 1; stroke-dasharray: 1, 0;"/></marker><marker id="my-svg_flowchart-crossEnd" class="marker cross flowchart" viewBox="0 0 11 11" refX="12" refY="5.2" markerUnits="userSpaceOnUse" markerWidth="11" markerHeight="11" orient="auto"><path d="M 1,1 l 9,9 M 10,1 l -9,9" class="arrowMarkerPath" style="stroke-width: 2; stroke-dasharray: 1, 0;"/></marker><marker id="my-svg_flowchart-crossStart" class="marker cross flowchart" viewBox="0 0 11 11" refX="-1" refY="5.2" markerUnits="userSpaceOnUse" markerWidth="11" markerHeight="11" orient="auto"><path d="M 1,1 l 9,9 M 10,1 l -9,9" class="arrowMarkerPath" style="stroke-width: 2; stroke-dasharray: 1, 0;"/></marker><g class="root"><g class="clusters"/><g class="edgePaths"><path d="M208.5,37.5L208.5,41.667C208.5,45.833,208.5,54.167,208.566,61.7C208.632,69.234,208.764,75.967,208.83,79.334L208.896,82.701" id="L-A-B-0" class="edge-thickness-normal edge-pattern-solid flowchart-link LS-A LE-B" style="fill:none;" marker-end="url(#my-svg_flowchart-pointEnd)"/><path d="M209,204.5L208.917,208.583C208.833,212.667,208.667,220.833,208.583,228.2C208.5,235.567,208.5,242.133,208.5,245.417L208.5,248.7" id="L-B-C-0" class="edge-thickness-normal edge-pattern-solid flowchart-link LS-B LE-C" style="fill:none;" marker-end="url(#my-svg_flowchart-pointEnd)"/><path d="M169.974,165.474L148.229,176.062C126.483,186.649,82.991,207.825,61.246,221.696C39.5,235.567,39.5,242.133,39.5,245.417L39.5,248.7" id="L-B-D-0" class="edge-thickness-normal edge-pattern-solid flowchart-link LS-B LE-D" style="fill:none;" marker-end="url(#my-svg_flowchart-pointEnd)"/><path d="M248.026,165.474L269.605,176.062C291.184,186.649,334.342,207.825,355.921,225.704C377.5,243.583,377.5,258.167,377.5,272.75C377.5,287.333,377.5,301.917,377.5,312.492C377.5,323.067,377.5,329.633,377.5,332.917L377.5,336.2" id="L-B-E-0" class="edge-thickness-normal edge-pattern-solid flowchart-link LS-B LE-E" style="fill:none;" marker-end="url(#my-svg_flowchart-pointEnd)"/><path d="M208.5,291.5L208.5,295.667C208.5,299.833,208.5,308.167,208.5,315.617C208.5,323.067,208.5,329.633,208.5,332.917L208.5,336.2" id="L-C-F-0" class="edge-thickness-normal edge-pattern-solid flowchart-link LS-C LE-F" style="fill:none;" marker-end="url(#my-svg_flowchart-pointEnd)"/><path d="M39.5,291.5L39.5,295.667C39.5,299.833,39.5,308.167,39.5,315.617C39.5,323.067,39.5,329.633,39.5,332.917L39.5,336.2" id="L-D-G-0" class="edge-thickness-normal edge-pattern-solid flowchart-link LS-D LE-G" style="fill:none;" marker-end="url(#my-svg_flowchart-pointEnd)"/><path d="M39.5,379L39.5,383.167C39.5,387.333,39.5,395.667,39.5,403.117C39.5,410.567,39.5,417.133,39.5,420.417L39.5,423.7" id="L-G-H-0" class="edge-thickness-normal edge-pattern-solid flowchart-link LS-G LE-H" style="fill:none;" marker-end="url(#my-svg_flowchart-pointEnd)"/><path d="M377.5,379L377.5,383.167C377.5,387.333,377.5,395.667,377.5,403.117C377.5,410.567,377.5,417.133,377.5,420.417L377.5,423.7" id="L-E-I-0" class="edge-thickness-normal edge-pattern-solid flowchart-link LS-E LE-I" style="fill:none;" marker-end="url(#my-svg_flowchart-pointEnd)"/><path d="M39.5,466.5L39.5,470.667C39.5,474.833,39.5,483.167,62.895,493.39C86.29,503.613,133.079,515.725,156.474,521.782L179.869,527.838" id="L-H-J-0" class="edge-thickness-normal edge-pattern-solid flowchart-link LS-H LE-J" style="fill:none;" marker-end="url(#my-svg_flowchart-pointEnd)"/><path d="M377.5,466.5L377.5,470.667C377.5,474.833,377.5,483.167,354.105,493.39C330.71,503.613,283.921,515.725,260.526,521.782L237.131,527.838" id="L-I-J-0" class="edge-thickness-normal edge-pattern-solid flowchart-link LS-I LE-J" style="fill:none;" marker-end="url(#my-svg_flowchart-pointEnd)"/><path d="M208.5,554L208.5,558.167C208.5,562.333,208.5,570.667,208.5,578.117C208.5,585.567,208.5,592.133,208.5,595.417L208.5,598.7" id="L-J-K-0" class="edge-thickness-normal edge-pattern-solid flowchart-link LS-J LE-K" style="fill:none;" marker-end="url(#my-svg_flowchart-pointEnd)"/></g><g class="edgeLabels"><g class="edgeLabel"><g class="label" transform="translate(0, 0)"><foreignObject width="0" height="0"><div xmlns="http://www.w3.org/1999/xhtml" style="display: inline-block; white-space: nowrap;"><span class="edgeLabel"></span></div></foreignObject></g></g><g class="edgeLabel"><g class="label" transform="translate(0, 0)"><foreignObject width="0" height="0"><div xmlns="http://www.w3.org/1999/xhtml" style="display: inline-block; white-space: nowrap;"><span class="edgeLabel"></span></div></foreignObject></g></g><g class="edgeLabel"><g class="label" transform="translate(0, 0)"><foreignObject width="0" height="0"><div xmlns="http://www.w3.org/1999/xhtml" style="display: inline-block; white-space: nowrap;"><span class="edgeLabel"></span></div></foreignObject></g></g><g class="edgeLabel"><g class="label" transform="translate(0, 0)"><foreignObject width="0" height="0"><div xmlns="http://www.w3.org/1999/xhtml" style="display: inline-block; white-space: nowrap;"><span class="edgeLabel"></span></div></foreignObject></g></g><g class="edgeLabel"><g class="label" transform="translate(0, 0)"><foreignObject width="0" height="0"><div xmlns="http://www.w3.org/1999/xhtml" style="display: inline-block; white-space: nowrap;"><span class="edgeLabel"></span></div></foreignObject></g></g><g class="edgeLabel"><g class="label" transform="translate(0, 0)"><foreignObject width="0" height="0"><div xmlns="http://www.w3.org/1999/xhtml" style="display: inline-block; white-space: nowrap;"><span class="edgeLabel"></span></div></foreignObject></g></g><g class="edgeLabel"><g class="label" transform="translate(0, 0)"><foreignObject width="0" height="0"><div xmlns="http://www.w3.org/1999/xhtml" style="display: inline-block; white-space: nowrap;"><span class="edgeLabel"></span></div></foreignObject></g></g><g class="edgeLabel"><g class="label" transform="translate(0, 0)"><foreignObject width="0" height="0"><div xmlns="http://www.w3.org/1999/xhtml" style="display: inline-block; white-space: nowrap;"><span class="edgeLabel"></span></div></foreignObject></g></g><g class="edgeLabel"><g class="label" transform="translate(0, 0)"><foreignObject width="0" height="0"><div xmlns="http://www.w3.org/1999/xhtml" style="display: inline-block; white-space: nowrap;"><span class="edgeLabel"></span></div></foreignObject></g></g><g class="edgeLabel"><g class="label" transform="translate(0, 0)"><foreignObject width="0" height="0"><div xmlns="http://www.w3.org/1999/xhtml" style="display: inline-block; white-space: nowrap;"><span class="edgeLabel"></span></div></foreignObject></g></g><g class="edgeLabel"><g class="label" transform="translate(0, 0)"><foreignObject width="0" height="0"><div xmlns="http://www.w3.org/1999/xhtml" style="display: inline-block; white-space: nowrap;"><span class="edgeLabel"></span></div></foreignObject></g></g></g><g class="nodes"><g class="node default default flowchart-label" id="flowchart-A-0" data-node="true" data-id="A" transform="translate(208.5, 18.75)"><rect class="basic label-container" style="" rx="0" ry="0" x="-46.55078125" y="-18.75" width="93.1015625" height="37.5"/><g class="label" style="" transform="translate(-39.05078125, -11.25)"><rect/><foreignObject width="78.1015625" height="22.5"><div xmlns="http://www.w3.org/1999/xhtml" style="display: inline-block; white-space: nowrap;"><span class="nodeLabel">Agent 计划</span></div></foreignObject></g></g><g class="node default default flowchart-label" id="flowchart-B-1" data-node="true" data-id="B" transform="translate(208.5, 145.75)"><polygon points="58.25,0 116.5,-58.25 58.25,-116.5 0,-58.25" class="label-container" transform="translate(-58.25,58.25)" style=""/><g class="label" style="" transform="translate(-32, -11.25)"><rect/><foreignObject width="64" height="22.5"><div xmlns="http://www.w3.org/1999/xhtml" style="display: inline-block; white-space: nowrap;"><span class="nodeLabel">工具类型</span></div></foreignObject></g></g><g class="node default default flowchart-label" id="flowchart-C-3" data-node="true" data-id="C" transform="translate(208.5, 272.75)"><rect class="basic label-container" style="" rx="0" ry="0" x="-39.5" y="-18.75" width="79" height="37.5"/><g class="label" style="" transform="translate(-32, -11.25)"><rect/><foreignObject width="64" height="22.5"><div xmlns="http://www.w3.org/1999/xhtml" style="display: inline-block; white-space: nowrap;"><span class="nodeLabel">只读工具</span></div></foreignObject></g></g><g class="node default default flowchart-label" id="flowchart-D-5" data-node="true" data-id="D" transform="translate(39.5, 272.75)"><rect class="basic label-container" style="" rx="0" ry="0" x="-39.5" y="-18.75" width="79" height="37.5"/><g class="label" style="" transform="translate(-32, -11.25)"><rect/><foreignObject width="64" height="22.5"><div xmlns="http://www.w3.org/1999/xhtml" style="display: inline-block; white-space: nowrap;"><span class="nodeLabel">写入工具</span></div></foreignObject></g></g><g class="node default default flowchart-label" id="flowchart-E-7" data-node="true" data-id="E" transform="translate(377.5, 360.25)"><rect class="basic label-container" style="" rx="0" ry="0" x="-39.5" y="-18.75" width="79" height="37.5"/><g class="label" style="" transform="translate(-32, -11.25)"><rect/><foreignObject width="64" height="22.5"><div xmlns="http://www.w3.org/1999/xhtml" style="display: inline-block; white-space: nowrap;"><span class="nodeLabel">危险工具</span></div></foreignObject></g></g><g class="node default default flowchart-label" id="flowchart-F-9" data-node="true" data-id="F" transform="translate(208.5, 360.25)"><rect class="basic label-container" style="" rx="0" ry="0" x="-79.5" y="-18.75" width="159" height="37.5"/><g class="label" style="" transform="translate(-72, -11.25)"><rect/><foreignObject width="144" height="22.5"><div xmlns="http://www.w3.org/1999/xhtml" style="display: inline-block; white-space: nowrap;"><span class="nodeLabel">直接调用并记录日志</span></div></foreignObject></g></g><g class="node default default flowchart-label" id="flowchart-G-11" data-node="true" data-id="G" transform="translate(39.5, 360.25)"><rect class="basic label-container" style="" rx="0" ry="0" x="-39.5" y="-18.75" width="79" height="37.5"/><g class="label" style="" transform="translate(-32, -11.25)"><rect/><foreignObject width="64" height="22.5"><div xmlns="http://www.w3.org/1999/xhtml" style="display: inline-block; white-space: nowrap;"><span class="nodeLabel">参数校验</span></div></foreignObject></g></g><g class="node default default flowchart-label" id="flowchart-H-13" data-node="true" data-id="H" transform="translate(39.5, 447.75)"><rect class="basic label-container" style="" rx="0" ry="0" x="-39.5" y="-18.75" width="79" height="37.5"/><g class="label" style="" transform="translate(-32, -11.25)"><rect/><foreignObject width="64" height="22.5"><div xmlns="http://www.w3.org/1999/xhtml" style="display: inline-block; white-space: nowrap;"><span class="nodeLabel">权限检查</span></div></foreignObject></g></g><g class="node default default flowchart-label" id="flowchart-I-15" data-node="true" data-id="I" transform="translate(377.5, 447.75)"><rect class="basic label-container" style="" rx="0" ry="0" x="-39.5" y="-18.75" width="79" height="37.5"/><g class="label" style="" transform="translate(-32, -11.25)"><rect/><foreignObject width="64" height="22.5"><div xmlns="http://www.w3.org/1999/xhtml" style="display: inline-block; white-space: nowrap;"><span class="nodeLabel">人工确认</span></div></foreignObject></g></g><g class="node default default flowchart-label" id="flowchart-J-17" data-node="true" data-id="J" transform="translate(208.5, 535.25)"><rect class="basic label-container" style="" rx="0" ry="0" x="-23.5" y="-18.75" width="47" height="37.5"/><g class="label" style="" transform="translate(-16, -11.25)"><rect/><foreignObject width="32" height="22.5"><div xmlns="http://www.w3.org/1999/xhtml" style="display: inline-block; white-space: nowrap;"><span class="nodeLabel">执行</span></div></foreignObject></g></g><g class="node default default flowchart-label" id="flowchart-K-21" data-node="true" data-id="K" transform="translate(208.5, 622.75)"><rect class="basic label-container" style="" rx="0" ry="0" x="-39.5" y="-18.75" width="79" height="37.5"/><g class="label" style="" transform="translate(-32, -11.25)"><rect/><foreignObject width="64" height="22.5"><div xmlns="http://www.w3.org/1999/xhtml" style="display: inline-block; white-space: nowrap;"><span class="nodeLabel">审计日志</span></div></foreignObject></g></g></g></g></g></svg>